<?xml version="1.0" encoding="UTF-8"?>
<!DOCTYPE svg PUBLIC "-//W3C//DTD SVG 1.1//EN" "http://www.w3.org/Graphics/SVG/1.1/DTD/svg11.dtd">
<!-- Creator: CorelDRAW X8 -->
<svg xmlns="http://www.w3.org/2000/svg" xml:space="preserve" width="279.4mm" height="297mm" version="1.1" style="shape-rendering:geometricPrecision; text-rendering:geometricPrecision; image-rendering:optimizeQuality; fill-rule:evenodd; clip-rule:evenodd"
viewBox="0 0 27940 29700"
 xmlns:xlink="http://www.w3.org/1999/xlink">
 <defs>
  <style type="text/css">
   <![CDATA[
    .fil0 {fill:#FEFEFE}
   ]]>
  </style>
 </defs>
 <g id="Layer_x0020_1">
  <metadata id="CorelCorpID_0Corel-Layer"/>
  <g id="_1471300192816">
   <g>
    <g>
     <g>
      <path class="fil0" d="M23798 19418l-2411 0 0 -7989c0,-371 -301,-672 -672,-672 -371,0 -672,301 -672,672l0 8794c0,376 -375,695 -822,700 -4,0 -7,0 -11,0 -7,0 -15,1 -22,1l-2576 0c-7,0 -15,-1 -22,-1 -7,0 -14,1 -22,1l-2577 0c-7,0 -14,-1 -21,-1 -8,0 -15,1 -22,1l-2577 0c-7,0 -14,-1 -21,-1 -8,0 -15,1 -22,1l-2577 0c-7,0 -14,-1 -21,-1 -4,0 -8,0 -12,0 -446,-5 -821,-324 -821,-700l0 -10744c0,-380 381,-701 833,-701l10480 0c451,0 833,321 833,701l0 131c0,372 301,672 672,672l3083 0c371,0 672,-300 672,-672 0,-371 -301,-671 -672,-671l-2488 0c-194,-664 -735,-1193 -1428,-1405l0 -2134c0,-371 -301,-671 -672,-671 -371,0 -672,300 -672,671l0 2034 -1276 0 0 -2034c0,-371 -301,-671 -672,-671 -371,0 -672,300 -672,671l0 2034 -1276 0 0 -2034c0,-371 -301,-671 -672,-671 -371,0 -672,300 -672,671l0 2034 -1276 0 0 -2034c0,-371 -301,-671 -672,-671 -371,0 -672,300 -672,671l0 2034 -1277 0 0 -2034c0,-371 -300,-671 -672,-671 -371,0 -671,300 -671,671l0 2134c-693,212 -1234,741 -1428,1404l-2488 0c-371,0 -672,301 -672,672 0,371 301,672 672,672l2411 0 0 9136 -2411 0c-371,0 -672,301 -672,672 0,372 301,672 672,672l2489 0c193,664 734,1193 1427,1405l0 2133c0,371 300,671 672,671 371,0 672,-300 672,-671l0 -2033 1276 0 0 2032c0,372 300,672 672,672 371,0 672,-300 672,-672l0 -2032 1276 0 0 2032c0,372 301,672 672,672 371,0 672,-300 672,-672l0 -2032 1276 0 0 2032c0,372 301,672 672,672 371,0 672,-300 672,-672l0 -2032 1276 0 0 2032c0,372 301,672 672,672 371,0 672,-300 672,-672l0 -2132c693,-212 1234,-741 1427,-1405l2489 0c371,0 672,-300 672,-672 0,-371 -301,-672 -672,-672z"/>
      <path class="fil0" d="M23798 16798l-1303 0c-372,0 -672,301 -672,672 0,371 300,672 672,672l1303 0c371,0 672,-301 672,-672 0,-371 -301,-672 -672,-672z"/>
      <path class="fil0" d="M23798 14178l-1303 0c-372,0 -672,301 -672,672 0,371 300,672 672,672l1303 0c371,0 672,-301 672,-672 0,-371 -301,-672 -672,-672z"/>
      <path class="fil0" d="M23798 11558l-1303 0c-372,0 -672,301 -672,672 0,371 300,672 672,672l1303 0c371,0 672,-301 672,-672 0,-371 -301,-672 -672,-672z"/>
      <path class="fil0" d="M4142 18142l1303 0c371,0 672,-301 672,-672 0,-371 -300,-672 -672,-672l-1303 0c-371,0 -672,301 -672,672 0,371 301,672 672,672z"/>
      <path class="fil0" d="M4142 15522l1303 0c371,0 672,-301 672,-672 0,-371 -300,-672 -672,-672l-1303 0c-371,0 -672,301 -672,672 0,371 301,672 672,672z"/>
      <path class="fil0" d="M4142 12902l1303 0c371,0 672,-301 672,-672 0,-371 -300,-672 -672,-672l-1303 0c-371,0 -672,301 -672,672 0,371 301,672 672,672z"/>
      <path class="fil0" d="M11799 11334c-277,0 -525,169 -626,427l-2218 5689c-135,346 36,736 381,870 347,135 736,-36 871,-381l352 -903 2481 0 352 903c103,265 357,428 626,428 81,0 164,-15 244,-47 345,-134 517,-524 382,-870l-2219 -5689c-101,-258 -349,-427 -626,-427zm-716 4358l716 -1837 717 1837 -1433 0z"/>
      <path class="fil0" d="M17773 12678c371,0 672,-301 672,-672 0,-372 -301,-672 -672,-672l-1882 0c-371,0 -672,300 -672,672 0,371 301,672 672,672l269 0 0 4345 -269 0c-371,0 -672,301 -672,672 0,371 301,672 672,672l1882 0c371,0 672,-301 672,-672 0,-371 -301,-672 -672,-672l-269 0 0 -4345 269 0z"/>
     </g>
    </g>
   </g>
   <g>
   </g>
   <g>
   </g>
   <g>
   </g>
   <g>
   </g>
   <g>
   </g>
   <g>
   </g>
   <g>
   </g>
   <g>
   </g>
   <g>
   </g>
   <g>
   </g>
   <g>
   </g>
   <g>
   </g>
   <g>
   </g>
   <g>
   </g>
   <g>
   </g>
  </g>
 </g>
</svg>
