<?xml version="1.0" encoding="iso-8859-1"?>
<!-- Generator: Adobe Illustrator 19.0.0, SVG Export Plug-In . SVG Version: 6.00 Build 0)  -->
<svg version="1.1" id="Capa_1" xmlns="http://www.w3.org/2000/svg" xmlns:xlink="http://www.w3.org/1999/xlink" x="0px" y="0px"
	 viewBox="0 0 512.009 512.009" style="enable-background:new 0 0 512.009 512.009;" xml:space="preserve">
<g>
	<g>
		<g>
			<path d="M495.617,367.387H436.84V172.604c0-9.052-7.331-16.383-16.383-16.383c-9.052,0-16.392,7.331-16.392,16.383V387
				c0,9.185-9.144,16.947-20.024,17.08c-0.095-0.002-0.186-0.014-0.281-0.014c-0.178,0-0.351,0.021-0.528,0.027h-62.816
				c-0.177-0.006-0.349-0.027-0.528-0.027s-0.351,0.021-0.528,0.027h-62.834c-0.177-0.006-0.349-0.027-0.527-0.027
				s-0.35,0.021-0.527,0.027h-62.826c-0.177-0.006-0.349-0.027-0.527-0.027s-0.35,0.021-0.527,0.027h-62.826
				c-0.177-0.006-0.349-0.027-0.527-0.027c-0.095,0-0.187,0.013-0.281,0.014c-10.889-0.133-20.024-7.895-20.024-17.08V125.045
				c0-9.265,9.301-17.093,20.305-17.093H383.76c11.005,0,20.305,7.828,20.305,17.093v3.213c0,9.052,7.339,16.383,16.392,16.383
				h75.16c9.052,0,16.392-7.331,16.392-16.383s-7.339-16.383-16.392-16.383h-60.659c-4.723-16.174-17.922-29.08-34.807-34.244
				V25.612c0-9.052-7.339-16.383-16.392-16.383c-9.052,0-16.383,7.331-16.383,16.383v49.574h-31.106V25.612
				c0-9.052-7.331-16.383-16.383-16.383c-9.052,0-16.392,7.331-16.392,16.383v49.574h-31.115V25.612
				c0-9.052-7.339-16.383-16.383-16.383s-16.383,7.331-16.383,16.383v49.574h-31.115V25.612c0-9.052-7.339-16.383-16.383-16.383
				s-16.383,7.331-16.383,16.383v49.574h-31.115V25.612c0-9.052-7.331-16.383-16.383-16.383s-16.383,7.331-16.383,16.383v52.016
				c-16.884,5.16-30.073,18.065-34.795,34.238H16.383C7.339,111.866,0,119.196,0,128.249c0,9.052,7.339,16.383,16.383,16.383h58.786
				v222.755H16.383C7.339,367.387,0,374.717,0,383.769c0,9.052,7.339,16.383,16.383,16.383H77.06
				c4.721,16.173,17.91,29.083,34.796,34.246v51.999c0,9.052,7.331,16.383,16.383,16.383c9.043,0,16.383-7.331,16.383-16.383V436.84
				h31.115v49.556c0,9.052,7.331,16.383,16.383,16.383c9.043,0,16.383-7.331,16.383-16.383V436.84h31.115v49.556
				c0,9.052,7.331,16.383,16.383,16.383s16.383-7.331,16.383-16.383V436.84h31.115v49.556c0,9.052,7.339,16.383,16.392,16.383
				c9.043,0,16.383-7.331,16.383-16.383V436.84h31.106v49.556c0,9.052,7.331,16.383,16.383,16.383
				c9.052,0,16.392-7.331,16.392-16.383v-52c16.886-5.163,30.073-18.071,34.795-34.244h60.67c9.043,0,16.392-7.331,16.392-16.383
				C512.009,374.717,504.669,367.387,495.617,367.387z"/>
			<path d="M495.617,303.506h-31.771c-9.052,0-16.383,7.331-16.383,16.383c0,9.052,7.331,16.383,16.383,16.383h31.771
				c9.043,0,16.392-7.331,16.392-16.383C512.009,310.837,504.669,303.506,495.617,303.506z"/>
			<path d="M495.617,239.617h-31.771c-9.052,0-16.383,7.331-16.383,16.383c0,9.052,7.331,16.383,16.383,16.383h31.771
				c9.043,0,16.392-7.331,16.392-16.383C512.009,246.948,504.669,239.617,495.617,239.617z"/>
			<path d="M495.617,175.737h-31.771c-9.052,0-16.383,7.331-16.383,16.383c0,9.052,7.331,16.383,16.383,16.383h31.771
				c9.043,0,16.392-7.331,16.392-16.383C512.009,183.068,504.669,175.737,495.617,175.737z"/>
			<path d="M16.383,336.272h31.78c9.043,0,16.383-7.331,16.383-16.383c0-9.052-7.331-16.383-16.383-16.383h-31.78
				C7.339,303.506,0,310.846,0,319.889C0,328.932,7.339,336.272,16.383,336.272z"/>
			<path d="M16.383,272.383h31.78c9.043,0,16.383-7.322,16.383-16.374c0-9.052-7.331-16.383-16.383-16.383h-31.78
				C7.339,239.626,0,246.965,0,256.009C0,265.052,7.339,272.383,16.383,272.383z"/>
			<path d="M16.383,208.503h31.78c9.043,0,16.383-7.331,16.383-16.383c0-9.052-7.331-16.383-16.383-16.383h-31.78
				C7.339,175.737,0,183.068,0,192.12C0,201.172,7.339,208.503,16.383,208.503z"/>
			<path d="M203.08,170.27c-6.754,0-12.815,4.136-15.265,10.428l-54.091,138.703c-3.284,8.44,0.879,17.936,9.31,21.219
				c8.44,3.284,17.936-0.887,21.219-9.31l8.583-22.009h60.488l8.583,22.009c2.52,6.479,8.706,10.437,15.264,10.437
				c1.979,0,3.994-0.364,5.955-1.127c8.422-3.284,12.602-12.788,9.31-21.219l-54.091-138.703
				C215.886,174.406,209.834,170.27,203.08,170.27z M185.613,276.536l17.467-44.791l17.467,44.791H185.613z"/>
			<path d="M348.723,203.036c9.043,0,16.392-7.331,16.392-16.383c0-9.052-7.339-16.383-16.392-16.383H302.85
				c-9.052,0-16.383,7.331-16.383,16.383c0,9.052,7.331,16.383,16.383,16.383h6.55v105.946h-6.55
				c-9.052,0-16.383,7.331-16.383,16.383c0,9.052,7.331,16.383,16.383,16.383h45.873c9.043,0,16.392-7.331,16.392-16.383
				c0-9.052-7.339-16.383-16.392-16.383h-6.541V203.036H348.723z"/>
		</g>
	</g>
</g>
<g>
</g>
<g>
</g>
<g>
</g>
<g>
</g>
<g>
</g>
<g>
</g>
<g>
</g>
<g>
</g>
<g>
</g>
<g>
</g>
<g>
</g>
<g>
</g>
<g>
</g>
<g>
</g>
<g>
</g>
</svg>
